PathFileType	4	(X/Y/Z)	66_2_84_p0_0-368.trc
DataRate	CameraRate	NumFrames	NumMarkers	Units	OrigDataRate	OrigDataStartFrame	OrigNumFrames
59.0	59.0	4	27	m	59.0	0	369
Frame#	Time	RHip			RKnee			RAnkle			RBigToe			RSmallToe			RHeel			LHip			LKnee			LAnkle			LBigToe			LSmallToe			LHeel			Neck			Head			Nose			RShoulder			RElbow			RWrist			RThumb			RIndex			RPinky			LShoulder			LElbow			LWrist			LThumb			LIndex			LPinky			
		X1	Y1	Z1	X2	Y2	Z2	X3	Y3	Z3	X4	Y4	Z4	X5	Y5	Z5	X6	Y6	Z6	X7	Y7	Z7	X8	Y8	Z8	X9	Y9	Z9	X10	Y10	Z10	X11	Y11	Z11	X12	Y12	Z12	X13	Y13	Z13	X14	Y14	Z14	X15	Y15	Z15	X16	Y16	Z16	X17	Y17	Z17	X18	Y18	Z18	X19	Y19	Z19	X20	Y20	Z20	X21	Y21	Z21	X22	Y22	Z22	X23	Y23	Z23	X24	Y24	Z24	X25	Y25	Z25	X26	Y26	Z26	X27	Y27	Z27	
0	0.0	0.5422571246933602	0.8831759130359652	0.8060169194364307	0.5456329479802469	1.0251987413766195	1.2330237905792274	0.5235985930057624	1.1341434777731214	1.6117140884734904	0.4951124765204564	0.9169539455670873	1.6624159193965582	0.5630353683309746	0.9383667586734253	1.6525567487742343	0.5022289798769471	1.2430848072972025	1.6760003818297025	0.34311892555766166	0.8993581864491926	0.8145983527367407	0.33473791952749804	1.0379003563908835	1.2317082114434794	0.3367813094083321	1.142064157024865	1.5946915574010039	0.3262488529781818	0.9118243242926646	1.633169941746756	0.2717677168100669	1.004543077915889	1.639827729713768	0.3591530077306385	1.216776436039909	1.6542030567541213	0.4496599174846558	0.7868282481541775	0.2676866426038533	0.45922735127141123	0.6804878007235715	0.029367080440943764	0.441506663178352	0.6174676822086088	0.16056151999198545	0.5893258695823086	0.7601136440503026	0.3675986862579252	0.6332017960374733	0.8016281696664079	0.6120018172633278	0.48552425334343946	0.7090191072074573	0.7779951133336033	0.41552732059546404	0.7272089720236327	0.8408411413457162	0.4088584519983433	0.7543975291450165	0.8719104969820207	0.4054890094264786	0.7715848541396094	0.8860147013176141	0.30122164471113194	0.8251408646546237	0.34265271755312837	0.23822484765353433	0.8445725684354455	0.6005184003162778	0.36078311553897746	0.710145458832009	0.7715928476817775	0.44910919614422856	0.6966008013817963	0.8069328659532962	0.44903470203329915	0.7252278379972062	0.8585488713153215	0.41057363225665494	0.7427083967371038	0.8820530838457166
1	0.01694915254237288	0.5421567131152752	0.8833613262787995	0.8061737628044013	0.5447185033387804	1.0272137143804994	1.2380089689333498	0.5281970287424719	1.150404030755528	1.6175129014451266	0.49556548571310055	0.9124945129504353	1.6604731095594571	0.562805893024099	0.9361361012062488	1.6479040558973739	0.5025505958184832	1.241472083270838	1.6757292459260522	0.3427975277120174	0.8991360533581638	0.8178745248617675	0.3346516901841226	1.038069419691318	1.2318095905890007	0.3371194193725481	1.1414229720325346	1.5941424794128585	0.32625100821637604	0.9133278376773022	1.6291319071414339	0.2766768783190454	0.9896415628681112	1.6295565068418747	0.359888950667045	1.2168064000493704	1.649706959462372	0.450013176348127	0.7861287413036965	0.2645031024080718	0.4557795765801423	0.6799331478228109	0.02961562531480816	0.44180537051741875	0.6193389102434482	0.16361038578316411	0.5894231530027456	0.760335863707041	0.3641661797504083	0.6328424599840815	0.8016135039854408	0.6119876553481646	0.4846205789307856	0.7101549047559217	0.781543122057432	0.4122618162615283	0.7301930888904816	0.8503883163849455	0.4084196859838269	0.7543236959595457	0.8791337115743858	0.4093466963700667	0.7576710090536671	0.8842073705407322	0.3042163885129197	0.8381967610279654	0.3421522537786511	0.24579644280121915	0.8432507025471502	0.6001932240759869	0.3564676062307704	0.7085413479732587	0.7714202058744318	0.44876687011095817	0.6971474961113873	0.8109950217316452	0.4477146781096151	0.7287383776983918	0.8634317660153733	0.4100285113991596	0.7429303124296375	0.8821724260716074
2	0.03389830508474576	0.5387753810153347	0.8987715408732023	0.8081217683102604	0.544822523972727	1.0269340845887878	1.2376776506045213	0.5281542707523562	1.1505680445867796	1.6173448193193884	0.4949069690972972	0.9114862696868883	1.659940067122941	0.5622921463370704	0.9354231041434952	1.6475123673482832	0.5073021111145651	1.2578459530273305	1.6811381868579505	0.3466872228211421	0.8993621871866414	0.8180155229593885	0.33018263603860526	1.0544240354948449	1.2358385672986283	0.3371097467003912	1.1407282363368596	1.5937298056877587	0.3296882221786072	0.9280928149071489	1.6346242802368658	0.27212083642653173	1.0048875216768123	1.6352558610772134	0.3597204635740848	1.215515274515373	1.6491296888703506	0.45002938774410145	0.786203294941175	0.264521054855007	0.459612752451073	0.6808562181046656	0.029511001410116897	0.4417388527604193	0.6192126759019003	0.16361520793227735	0.5894270318786492	0.7602397300857561	0.36418744366108985	0.6331415917700272	0.8020262183019069	0.6121033520406788	0.48820222305808264	0.694753930084273	0.7763961219899046	0.416094860488347	0.7166514156275811	0.8484777485333899	0.40500572419250125	0.741537407824169	0.8772235490207616	0.40939773521293416	0.7568866774748946	0.8840566692498869	0.30424635907048303	0.8383173460293578	0.3421985953449671	0.2544537837063003	0.8304423333492994	0.5991630341164735	0.356665519019188	0.7102847233471099	0.7751027774931715	0.44410338968512786	0.6986886025958927	0.8184986272396502	0.4425993409881487	0.7267321805345119	0.8631346812782015	0.4098974060709149	0.7429162278777778	0.8820602575660448
3	0.05084745762711865	0.5423535788640249	0.8835968813484241	0.8060878626288529	0.5438815468211203	1.024475563428649	1.2329655057359534	0.5281619715670017	1.1504081726011446	1.6175835350857748	0.49402256201695566	0.9128974806000494	1.6603447878805546	0.562267032595486	0.9362541497909649	1.642990104761114	0.507244262882415	1.2587103941660278	1.6816195960673732	0.3468354715042474	0.89915766312109	0.8179820252301209	0.33918061649220654	1.0393101357798	1.2319746560376381	0.3374039876757655	1.1415948612714941	1.5941050137994004	0.32629942905835907	0.9135324667592725	1.6291538509390233	0.2721883913020026	1.0055408598292714	1.6355803538806175	0.359296032996871	1.215688978428644	1.649194249399939	0.45004727462336785	0.7861418084577134	0.26456134184178215	0.4597137221244059	0.6808112162686011	0.029524207935784957	0.44174003616443297	0.6193490686965153	0.1635802895332933	0.5855607942996279	0.7601855647159316	0.364228488975637	0.6327504027273441	0.8015498126657605	0.6121054963350377	0.4880397467110687	0.694761131732995	0.7765034298919907	0.4082687676601758	0.713901377504078	0.8439977822713474	0.4048471759304111	0.7414326641533645	0.8773802078895062	0.40913004131027725	0.7566571677912756	0.8843793988967775	0.3042501536768726	0.8384270053073967	0.34223562788429496	0.25919744266206074	0.8329153179749904	0.5994858125573315	0.35658442577878713	0.710209277266189	0.7751374770834787	0.439255799800634	0.6967713508077185	0.8142309504719322	0.4364655871597948	0.7122155272211058	0.8614952920495607	0.4086032692841659	0.7435617683622858	0.8858091470152044
